<?xml version="1.0" encoding="UTF-8" standalone="no"?><!DOCTYPE svg PUBLIC "-//W3C//DTD SVG 1.1//EN" "http://www.w3.org/Graphics/SVG/1.1/DTD/svg11.dtd"><svg width="100%" height="100%" viewBox="0 0 1000 1000" version="1.1" xmlns="http://www.w3.org/2000/svg" xmlns:xlink="http://www.w3.org/1999/xlink" xml:space="preserve" xmlns:serif="http://www.serif.com/" style="fill-rule:evenodd;clip-rule:evenodd;stroke-linejoin:round;stroke-miterlimit:1.41421;"><g><path d="M440.755,367.317c0,0 44.332,275.696 -14.512,434.391c-12.579,33.924 -54.762,64.951 -75.319,84.061c-28.806,26.78 28.04,22.062 75.319,0c27.236,-12.708 53.011,-44.915 53.011,-44.915c0,0 2.63,29.518 23.099,96.247c8.424,27.46 38.751,-92.861 57.749,-96.247c4.965,-0.885 42.105,21.809 65.448,44.915c15.209,15.055 37.194,27.06 82.131,14.117c18.491,-5.326 -26.257,-27.929 -37.216,-37.412c-21.661,-18.746 -54.757,-55.275 -64.164,-76.802c-10.887,-24.911 -43.833,-105.138 -46.199,-196.37c-1.934,-74.57 25.982,-159.473 46.199,-202.735" style="fill:#a5620e;"/><clipPath id="_clip1"><path d="M440.755,367.317c0,0 44.332,275.696 -14.512,434.391c-12.579,33.924 -54.762,64.951 -75.319,84.061c-28.806,26.78 28.04,22.062 75.319,0c27.236,-12.708 53.011,-44.915 53.011,-44.915c0,0 2.63,29.518 23.099,96.247c8.424,27.46 38.751,-92.861 57.749,-96.247c4.965,-0.885 42.105,21.809 65.448,44.915c15.209,15.055 37.194,27.06 82.131,14.117c18.491,-5.326 -26.257,-27.929 -37.216,-37.412c-21.661,-18.746 -54.757,-55.275 -64.164,-76.802c-10.887,-24.911 -43.833,-105.138 -46.199,-196.37c-1.934,-74.57 25.982,-159.473 46.199,-202.735"/></clipPath><g clip-path="url(#_clip1)"><path d="M509.412,941.172c0,0 16.013,-112.504 44.273,-113.02c28.261,-0.517 95.343,69.37 158.421,69.167c63.078,-0.203 -18.541,75.715 -18.541,75.715l-184.153,-31.862Zm-166.285,-41.286c0,0 116.301,-47.441 136.127,-69.298c19.826,-21.858 17.966,110.584 17.966,110.584l-154.093,-41.286Zm166.285,-459.421c38.6,0 69.939,27.314 69.939,60.957c0,33.643 -31.339,60.956 -69.939,60.956c-38.601,0 -69.94,-27.313 -69.94,-60.956c0,-33.643 31.339,-60.957 69.94,-60.957Z" style="fill:#8b581a;"/><path d="M468.988,476.397c0,0 76.891,378.949 -125.861,424.194c-202.753,45.246 61.696,-424.194 61.696,-424.194l64.165,0Z" style="fill:#c18842;fill-opacity:0.222561;"/></g><path d="M305.692,169.046c6.316,-49.903 48.968,-88.546 100.575,-88.546c48.615,0 89.285,34.294 99.115,79.99c15.276,-9.23 33.18,-14.542 52.314,-14.542c16.036,0 31.207,3.731 44.692,10.373c17.615,-29.998 50.216,-50.155 87.487,-50.155c55.954,0 101.381,45.427 101.381,101.38l0.62,0.002c52.658,0.334 95.306,43.188 95.306,95.925c0,35.992 -19.864,67.38 -49.218,83.791c6.678,14.65 10.399,30.928 10.399,48.068c0,64.098 -52.04,116.138 -116.139,116.138c-20.344,0 -39.473,-5.242 -56.109,-14.448c-17.584,30.123 -50.255,50.381 -87.62,50.381c-36.039,0 -67.712,-18.846 -85.691,-47.212c-13.929,7.207 -29.737,11.279 -46.489,11.279c-20.183,0 -38.997,-5.911 -54.802,-16.094c-13.034,40.942 -51.39,70.634 -96.627,70.634c-55.953,0 -101.38,-45.427 -101.38,-101.38c0,-6.361 0.587,-12.586 1.71,-18.623c-0.569,0.01 -1.139,0.015 -1.71,0.015c-55.954,0 -101.381,-45.427 -101.381,-101.38c0,-41.47 24.953,-77.158 60.652,-92.855c-3.546,-10.32 -5.47,-21.392 -5.47,-32.909c0,-55.953 45.427,-101.38 101.38,-101.38c16.96,0 32.952,4.173 47.005,11.548Z" style="fill:#2ba50e;"/><clipPath id="_clip2"><path d="M305.692,169.046c6.316,-49.903 48.968,-88.546 100.575,-88.546c48.615,0 89.285,34.294 99.115,79.99c15.276,-9.23 33.18,-14.542 52.314,-14.542c16.036,0 31.207,3.731 44.692,10.373c17.615,-29.998 50.216,-50.155 87.487,-50.155c55.954,0 101.381,45.427 101.381,101.38l0.62,0.002c52.658,0.334 95.306,43.188 95.306,95.925c0,35.992 -19.864,67.38 -49.218,83.791c6.678,14.65 10.399,30.928 10.399,48.068c0,64.098 -52.04,116.138 -116.139,116.138c-20.344,0 -39.473,-5.242 -56.109,-14.448c-17.584,30.123 -50.255,50.381 -87.62,50.381c-36.039,0 -67.712,-18.846 -85.691,-47.212c-13.929,7.207 -29.737,11.279 -46.489,11.279c-20.183,0 -38.997,-5.911 -54.802,-16.094c-13.034,40.942 -51.39,70.634 -96.627,70.634c-55.953,0 -101.38,-45.427 -101.38,-101.38c0,-6.361 0.587,-12.586 1.71,-18.623c-0.569,0.01 -1.139,0.015 -1.71,0.015c-55.954,0 -101.381,-45.427 -101.381,-101.38c0,-41.47 24.953,-77.158 60.652,-92.855c-3.546,-10.32 -5.47,-21.392 -5.47,-32.909c0,-55.953 45.427,-101.38 101.38,-101.38c16.96,0 32.952,4.173 47.005,11.548Z"/></clipPath><g clip-path="url(#_clip2)"><path d="M291.765,101.032c6.316,-49.904 48.968,-88.547 100.574,-88.547c48.616,0 89.285,34.294 99.115,79.99c15.277,-9.229 33.18,-14.542 52.314,-14.542c16.036,0 31.208,3.732 44.693,10.373c17.614,-29.998 50.215,-50.155 87.487,-50.155c55.953,0 101.38,45.427 101.38,101.381l0.62,0.002c52.659,0.334 95.307,43.188 95.307,95.924c0,35.992 -19.865,67.38 -49.219,83.791c6.678,14.65 10.399,30.928 10.399,48.068c0,64.099 -52.04,116.138 -116.138,116.138c-20.345,0 -39.474,-5.242 -56.11,-14.448c-17.584,30.123 -50.255,50.381 -87.62,50.381c-36.039,0 -67.711,-18.846 -85.691,-47.212c-13.928,7.208 -29.737,11.279 -46.488,11.279c-20.184,0 -38.997,-5.91 -54.803,-16.094c-13.033,40.942 -51.39,70.635 -96.627,70.635c-55.953,0 -101.38,-45.427 -101.38,-101.381c0,-6.361 0.587,-12.585 1.71,-18.622c-0.569,0.01 -1.139,0.014 -1.71,0.014c-55.954,0 -101.381,-45.427 -101.381,-101.38c0,-41.47 24.954,-77.158 60.652,-92.855c-3.545,-10.32 -5.47,-21.391 -5.47,-32.908c0,-55.954 45.427,-101.381 101.381,-101.381c16.959,0 32.952,4.173 47.005,11.549Z" style="fill:#3cb220;"/></g></g></svg>